<svg width="16" height="16" viewBox="0 0 16 16" fill="none" xmlns="http://www.w3.org/2000/svg">
<path d="M1 6.00001H0.5H1ZM4 3.00001V3.50001V3.00001ZM4 9.00001V8.50001V9.00001ZM7.02566 15V15.5V15ZM5.67566 14.027L6.15 13.8689L6.15 13.8689L5.67566 14.027ZM8.37566 13.127L7.90132 13.2851L8.37566 13.127ZM15 6.90152H15.5H15ZM14.7105 9.47483L15.1382 9.73393L14.7105 9.47483ZM11.0239 10.006L11.1452 9.52091H11.1452L11.0239 10.006ZM13.5906 10.3493L13.4429 9.87157L13.5906 10.3493ZM11.0239 1.99403L10.9026 1.50896V1.50896L11.0239 1.99403ZM13.5906 1.65074L13.4429 2.12844L13.5906 1.65074ZM15 5.09849H14.5H15ZM14.7105 2.52518L14.2829 2.78427L14.7105 2.52518ZM4 3.50001H7V2.50001H4V3.50001ZM6.5 3.00001V9.00001H7.5V3.00001H6.5ZM7 8.50001H4V9.50001H7V8.50001ZM1.5 6.00001C1.5 4.61929 2.61929 3.50001 4 3.50001V2.50001C2.067 2.50001 0.5 4.06701 0.5 6.00001H1.5ZM0.5 6.00001C0.5 7.933 2.067 9.50001 4 9.50001V8.50001C2.61929 8.50001 1.5 7.38072 1.5 6.00001H0.5ZM6.15 13.8689L4.47434 8.84189L3.52566 9.15812L5.20132 14.1851L6.15 13.8689ZM6.52566 9.15812L7.90132 13.2851L8.85 12.9689L7.47434 8.84189L6.52566 9.15812ZM7.02566 14.5C6.62836 14.5 6.27564 14.2458 6.15 13.8689L5.20132 14.1851C5.46307 14.9703 6.19793 15.5 7.02566 15.5V14.5ZM7.02566 15.5C8.33823 15.5 9.26507 14.2141 8.85 12.9689L7.90132 13.2851C8.10055 13.8828 7.65568 14.5 7.02566 14.5V15.5ZM7.12127 3.48508L11.1452 2.4791L10.9026 1.50896L6.87873 2.51493L7.12127 3.48508ZM14.5 5.09849V6.90152H15.5V5.09849H14.5ZM11.1452 9.52091L7.12127 8.51493L6.87873 9.48508L10.9026 10.491L11.1452 9.52091ZM14.5 6.90152C14.5 7.60921 14.4995 8.10705 14.4658 8.48884C14.4323 8.86689 14.3698 9.07228 14.2829 9.21574L15.1382 9.73393C15.3407 9.39961 15.423 9.01686 15.4619 8.57696C15.5005 8.14079 15.5 7.59086 15.5 6.90152H14.5ZM10.9026 10.491C11.5714 10.6582 12.1048 10.7921 12.5373 10.8604C12.9735 10.9293 13.3648 10.9424 13.7382 10.827L13.4429 9.87157C13.2827 9.92109 13.0683 9.93191 12.6934 9.87267C12.3148 9.81284 11.8317 9.69255 11.1452 9.52091L10.9026 10.491ZM14.2829 9.21574C14.0926 9.52979 13.7938 9.76314 13.4429 9.87157L13.7382 10.827C14.3229 10.6463 14.821 10.2573 15.1382 9.73393L14.2829 9.21574ZM11.1452 2.4791C11.8317 2.30746 12.3148 2.18717 12.6934 2.12734C13.0683 2.0681 13.2827 2.07892 13.4429 2.12844L13.7382 1.17303C13.3648 1.05761 12.9735 1.07066 12.5373 1.1396C12.1048 1.20795 11.5714 1.34177 10.9026 1.50896L11.1452 2.4791ZM15.5 5.09849C15.5 4.40915 15.5005 3.85922 15.4619 3.42305C15.423 2.98315 15.3407 2.6004 15.1382 2.26608L14.2829 2.78427C14.3698 2.92773 14.4323 3.13312 14.4658 3.51117C14.4995 3.89296 14.5 4.3908 14.5 5.09849H15.5ZM13.4429 2.12844C13.7938 2.23687 14.0926 2.47022 14.2829 2.78427L15.1382 2.26608C14.821 1.74266 14.3229 1.35375 13.7382 1.17303L13.4429 2.12844Z" fill="#000F0C"/>
</svg>
