<svg width="12" height="12" viewBox="0 0 12 12" fill="none" xmlns="http://www.w3.org/2000/svg">
<g clip-path="url(#clip0_1153_19997)">
<path d="M11.6476 4.0447C11.6476 2.57647 10.4335 1.38352 8.93705 1.38352C8.68293 1.38352 8.44293 1.42588 8.20999 1.48941C7.72293 0.8047 6.91116 0.352936 5.99352 0.352936C5.07587 0.352936 4.27116 0.8047 3.77705 1.48941C3.5441 1.42588 3.3041 1.38352 3.04999 1.38352C1.56763 1.38352 0.353516 2.56941 0.353516 4.0447C0.353516 5.13882 1.03116 6.0847 1.99116 6.48705V10.9412C1.99116 11.3294 2.31587 11.6471 2.71116 11.6471H9.34646C9.74175 11.6471 10.0665 11.3294 10.0665 10.9412V6.45882C10.9982 6.03529 11.6476 5.11764 11.6476 4.0447Z" stroke="#000F0C" stroke-miterlimit="10"/>
</g>
<defs>
<clipPath id="clip0_1153_19997">
<rect width="12" height="12" fill="white"/>
</clipPath>
</defs>
</svg>
