<svg width="12" height="12" viewBox="0 0 12 12" fill="none" xmlns="http://www.w3.org/2000/svg">
<path d="M2.31901 11.0865L2.54601 10.641H2.54601L2.31901 11.0865ZM1.66349 10.431L2.10899 10.204L2.10899 10.204L1.66349 10.431ZM10.3365 10.431L9.89101 10.204V10.204L10.3365 10.431ZM9.68099 11.0865L9.45399 10.641H9.45399L9.68099 11.0865ZM10.3858 3.17597L10.8478 2.98463L10.3858 3.17597ZM9.57403 2.36418L9.76537 1.90224L9.57403 2.36418ZM1.61418 3.17597L1.15224 2.98463L1.61418 3.17597ZM2.42597 2.36418L2.23463 1.90224L2.42597 2.36418ZM4.15951 3.66825L4.3865 3.22275L4.15951 3.66825ZM3.83175 3.34049L4.27725 3.1135L3.83175 3.34049ZM8.16825 3.34049L7.72275 3.1135L8.16825 3.34049ZM7.84049 3.66825L7.6135 3.22275L7.84049 3.66825ZM7.84049 0.831745L7.6135 1.27725L7.84049 0.831745ZM8.16825 1.15951L7.72275 1.3865L8.16825 1.15951ZM4.15951 0.831745L4.3865 1.27725L4.15951 0.831745ZM3.83175 1.15951L4.27725 1.3865L3.83175 1.15951ZM10 4.5V8.85H11V4.5H10ZM8.1 10.75H3.9V11.75H8.1V10.75ZM2 8.85V4.5H1V8.85H2ZM3.9 10.75C3.47171 10.75 3.18056 10.7496 2.95552 10.7312C2.73631 10.7133 2.62421 10.6809 2.54601 10.641L2.09202 11.532C2.33469 11.6557 2.59304 11.7049 2.87409 11.7279C3.1493 11.7504 3.48821 11.75 3.9 11.75V10.75ZM1 8.85C1 9.26179 0.999611 9.6007 1.0221 9.87591C1.04506 10.157 1.09434 10.4153 1.21799 10.658L2.10899 10.204C2.06915 10.1258 2.03669 10.0137 2.01878 9.79448C2.00039 9.56944 2 9.27829 2 8.85H1ZM2.54601 10.641C2.35785 10.5451 2.20487 10.3922 2.10899 10.204L1.21799 10.658C1.40973 11.0343 1.7157 11.3403 2.09202 11.532L2.54601 10.641ZM10 8.85C10 9.27829 9.99961 9.56944 9.98122 9.79448C9.96331 10.0137 9.93085 10.1258 9.89101 10.204L10.782 10.658C10.9057 10.4153 10.9549 10.157 10.9779 9.87591C11.0004 9.6007 11 9.26179 11 8.85H10ZM8.1 11.75C8.51179 11.75 8.8507 11.7504 9.12591 11.7279C9.40696 11.7049 9.66531 11.6557 9.90798 11.532L9.45399 10.641C9.37579 10.6809 9.26369 10.7133 9.04448 10.7312C8.81944 10.7496 8.52829 10.75 8.1 10.75V11.75ZM9.89101 10.204C9.79513 10.3922 9.64215 10.5451 9.45399 10.641L9.90798 11.532C10.2843 11.3403 10.5903 11.0343 10.782 10.658L9.89101 10.204ZM11 4.5C11 4.15738 11.0003 3.87538 10.9846 3.64523C10.9686 3.41059 10.9343 3.19354 10.8478 2.98463L9.92388 3.36732C9.95153 3.43407 9.97435 3.52957 9.98689 3.7133C9.99973 3.90152 10 4.1437 10 4.5H11ZM8.25 2.75C8.6063 2.75 8.84848 2.75027 9.0367 2.76311C9.22043 2.77565 9.31593 2.79847 9.38268 2.82612L9.76537 1.90224C9.55646 1.81571 9.33941 1.78144 9.10477 1.76543C8.87462 1.74973 8.59262 1.75 8.25 1.75V2.75ZM10.8478 2.98463C10.6448 2.49458 10.2554 2.10523 9.76537 1.90224L9.38268 2.82612C9.62771 2.92761 9.82239 3.12229 9.92388 3.36732L10.8478 2.98463ZM2 4.5C2 4.1437 2.00027 3.90152 2.01311 3.7133C2.02565 3.52957 2.04847 3.43407 2.07612 3.36732L1.15224 2.98463C1.06571 3.19354 1.03144 3.41059 1.01543 3.64523C0.999729 3.87538 1 4.15738 1 4.5H2ZM3.75 1.75C3.40738 1.75 3.12538 1.74973 2.89523 1.76543C2.66059 1.78144 2.44354 1.81571 2.23463 1.90224L2.61732 2.82612C2.68407 2.79847 2.77957 2.77565 2.9633 2.76311C3.15152 2.75027 3.3937 2.75 3.75 2.75V1.75ZM2.07612 3.36732C2.17761 3.12229 2.37229 2.92761 2.61732 2.82612L2.23463 1.90224C1.74458 2.10523 1.35523 2.49458 1.15224 2.98463L2.07612 3.36732ZM4.95 1.25H7.05V0.25H4.95V1.25ZM7.75 1.95V2.55H8.75V1.95H7.75ZM7.05 3.25H4.95V4.25H7.05V3.25ZM4.25 2.55V1.95H3.25V2.55H4.25ZM4.95 3.25C4.73173 3.25 4.5981 3.24961 4.49812 3.24144C4.45154 3.23764 4.42336 3.23286 4.40625 3.22883C4.39811 3.22691 4.3931 3.2253 4.39039 3.22434C4.38779 3.22341 4.3867 3.22285 4.3865 3.22275L3.93251 4.11376C4.09496 4.19653 4.2607 4.22538 4.41669 4.23812C4.56683 4.25039 4.74823 4.25 4.95 4.25V3.25ZM3.25 2.55C3.25 2.75177 3.24961 2.93317 3.26188 3.08331C3.27462 3.2393 3.30347 3.40504 3.38624 3.56749L4.27725 3.1135C4.27715 3.1133 4.27659 3.11221 4.27566 3.10961C4.2747 3.1069 4.27309 3.10189 4.27117 3.09375C4.26714 3.07664 4.26236 3.04846 4.25856 3.00188C4.25039 2.9019 4.25 2.76827 4.25 2.55H3.25ZM4.3865 3.22275C4.33946 3.19878 4.30122 3.16054 4.27725 3.1135L3.38624 3.56749C3.50608 3.80269 3.69731 3.99392 3.93251 4.11376L4.3865 3.22275ZM7.75 2.55C7.75 2.76827 7.74961 2.9019 7.74144 3.00188C7.73764 3.04846 7.73286 3.07664 7.72883 3.09375C7.72691 3.10189 7.7253 3.1069 7.72434 3.10961C7.72341 3.11221 7.72285 3.1133 7.72275 3.1135L8.61376 3.56749C8.69653 3.40504 8.72538 3.2393 8.73812 3.08331C8.75039 2.93317 8.75 2.75177 8.75 2.55H7.75ZM7.05 4.25C7.25177 4.25 7.43317 4.25039 7.58331 4.23812C7.7393 4.22538 7.90504 4.19653 8.06749 4.11376L7.6135 3.22275C7.6133 3.22285 7.61221 3.22341 7.60961 3.22434C7.6069 3.2253 7.60189 3.22691 7.59375 3.22883C7.57664 3.23286 7.54846 3.23764 7.50188 3.24144C7.4019 3.24961 7.26827 3.25 7.05 3.25V4.25ZM7.72275 3.1135C7.69878 3.16054 7.66054 3.19878 7.6135 3.22275L8.06749 4.11376C8.30269 3.99392 8.49392 3.80269 8.61376 3.56749L7.72275 3.1135ZM7.05 1.25C7.26827 1.25 7.4019 1.25039 7.50188 1.25856C7.54846 1.26236 7.57664 1.26714 7.59375 1.27117C7.60189 1.27309 7.6069 1.2747 7.60961 1.27566C7.61221 1.27659 7.6133 1.27715 7.6135 1.27725L8.06749 0.386242C7.90504 0.303469 7.7393 0.274623 7.58331 0.261879C7.43317 0.249611 7.25177 0.25 7.05 0.25V1.25ZM8.75 1.95C8.75 1.74823 8.75039 1.56683 8.73812 1.41669C8.72538 1.2607 8.69653 1.09496 8.61376 0.932512L7.72275 1.3865C7.72285 1.3867 7.72341 1.38779 7.72434 1.39039C7.7253 1.3931 7.72691 1.39811 7.72883 1.40625C7.73286 1.42336 7.73764 1.45154 7.74144 1.49812C7.74961 1.5981 7.75 1.73173 7.75 1.95H8.75ZM7.6135 1.27725C7.66054 1.30122 7.69878 1.33946 7.72275 1.3865L8.61376 0.932512C8.49392 0.69731 8.30269 0.506084 8.06749 0.386242L7.6135 1.27725ZM4.95 0.25C4.74823 0.25 4.56683 0.249611 4.41669 0.261879C4.2607 0.274623 4.09496 0.303469 3.93251 0.386242L4.3865 1.27725C4.3867 1.27715 4.38779 1.27659 4.39039 1.27566C4.3931 1.2747 4.39811 1.27309 4.40625 1.27117C4.42336 1.26714 4.45154 1.26236 4.49812 1.25856C4.5981 1.25039 4.73173 1.25 4.95 1.25V0.25ZM4.25 1.95C4.25 1.73173 4.25039 1.5981 4.25856 1.49812C4.26236 1.45154 4.26714 1.42336 4.27117 1.40625C4.27309 1.39811 4.2747 1.3931 4.27566 1.39039C4.27659 1.38779 4.27715 1.3867 4.27725 1.3865L3.38624 0.932512C3.30347 1.09496 3.27462 1.2607 3.26188 1.41669C3.24961 1.56683 3.25 1.74823 3.25 1.95H4.25ZM3.93251 0.386242C3.69731 0.506084 3.50608 0.697309 3.38624 0.932512L4.27725 1.3865C4.30122 1.33946 4.33946 1.30122 4.3865 1.27725L3.93251 0.386242Z" fill="currentColor"/>
</svg>
