<svg width="14" height="14" viewBox="0 0 14 14" fill="none" xmlns="http://www.w3.org/2000/svg">
<g clip-path="url(#clip0_1898_8399)">
<path d="M13.125 7C13.125 10.3827 10.3827 13.125 7 13.125C3.61726 13.125 0.875 10.3827 0.875 7C0.875 3.61726 3.61726 0.875 7 0.875C10.3827 0.875 13.125 3.61726 13.125 7Z" fill="#00A887"/>
<path d="M7 10.5V10.4795M7 7.875V7C7.98033 7 8.75 6.22284 8.75 5.25C8.75 4.27716 7.80201 3.5 7 3.5C6.125 3.5 5.64079 3.84051 5.25 4.375M13.125 7C13.125 10.3827 10.3827 13.125 7 13.125C3.61726 13.125 0.875 10.3827 0.875 7C0.875 3.61726 3.61726 0.875 7 0.875C10.3827 0.875 13.125 3.61726 13.125 7Z" stroke="white" stroke-linecap="round" stroke-linejoin="round"/>
</g>
<defs>
<clipPath id="clip0_1898_8399">
<rect width="14" height="14" fill="white"/>
</clipPath>
</defs>
</svg>
