<svg width="16" height="16" viewBox="0 0 16 16" fill="none" xmlns="http://www.w3.org/2000/svg">
<path d="M8 14.5L7.69778 14.8983C7.87646 15.0339 8.12354 15.0339 8.30222 14.8983L8 14.5ZM8.5 6C8.5 6.27614 8.27614 6.5 8 6.5V7.5C8.82843 7.5 9.5 6.82843 9.5 6H8.5ZM8 6.5C7.72386 6.5 7.5 6.27614 7.5 6H6.5C6.5 6.82843 7.17157 7.5 8 7.5V6.5ZM7.5 6C7.5 5.72386 7.72386 5.5 8 5.5V4.5C7.17157 4.5 6.5 5.17157 6.5 6H7.5ZM8 5.5C8.27614 5.5 8.5 5.72386 8.5 6H9.5C9.5 5.17157 8.82843 4.5 8 4.5V5.5ZM8 0.5C4.77004 0.5 2.5 3.0206 2.5 6.41935H3.5C3.5 3.49553 5.39663 1.5 8 1.5V0.5ZM2.5 6.41935C2.5 8.18103 3.18998 9.83499 4.17094 11.2692C5.15266 12.7044 6.44398 13.9471 7.69778 14.8983L8.30222 14.1017C7.11238 13.1989 5.90369 12.0312 4.99633 10.7046C4.08819 9.37689 3.5 7.91754 3.5 6.41935H2.5ZM8 1.5C10.6034 1.5 12.5 3.49553 12.5 6.41935H13.5C13.5 3.0206 11.23 0.5 8 0.5V1.5ZM12.5 6.41935C12.5 7.91754 11.9118 9.37689 11.0037 10.7046C10.0963 12.0312 8.88762 13.1989 7.69778 14.1017L8.30222 14.8983C9.55602 13.9471 10.8473 12.7044 11.8291 11.2692C12.81 9.83499 13.5 8.18103 13.5 6.41935H12.5Z" fill="currentColor"/>
</svg>
