<svg width="114" height="36" viewBox="0 0 114 36" fill="none" xmlns="http://www.w3.org/2000/svg">
<path d="M62.568 14.468L57.415 14.9146L58.2559 24.4354L63.4088 23.9888L62.568 14.468Z" fill="#F7EEE2"/>
<path d="M83.2978 18.2133L83.2096 17.2224L87.5287 16.8477L87.2448 13.636L82.9265 14.0099L82.8383 13.0189L87.6493 12.6018L87.2946 8.58264L76.7842 9.49396L77.9513 22.7258L88.4635 21.8162L88.1079 17.7962L83.2978 18.2133Z" fill="#F7EEE2"/>
<path d="M70.672 18.6885L70.6449 18.6911L70.153 18.7335L69.9862 18.7482L68.9806 10.1707L63.0488 10.6848L65.9003 23.7712L75.5921 22.9318L76.0901 9.55453L70.1583 10.0686L70.672 18.6885Z" fill="#F7EEE2"/>
<path d="M94.8815 16.9861L94.0874 7.99414L88.1416 8.50908L89.3096 21.7426L98.5087 20.9456L98.134 16.7049L94.8815 16.9861Z" fill="#F7EEE2"/>
<path d="M111.676 0L0 9.67829L2.32468 36L19.5033 34.5114L114 26.3217L111.676 0ZM109.679 24.2697L25.2919 31.5836L6.59226 33.2037C5.46006 33.3015 4.46502 32.5036 4.3698 31.4201L2.79468 13.5884C2.69858 12.5048 3.53899 11.5477 4.67119 11.4499L107.758 2.51585C108.89 2.41806 109.885 3.216 109.981 4.29954L111.555 22.1312C111.65 23.2139 110.81 24.1719 109.678 24.2697H109.679Z" fill="#F7EEE2"/>
<path d="M106.024 17.0069L105.734 3.57861L99.0654 4.15587L101.133 17.431L106.024 17.0069Z" fill="#F7EEE2"/>
<path d="M103.653 18.074C102.041 18.2142 100.847 19.6223 100.989 21.2199C101.13 22.8175 102.552 23.9997 104.165 23.8595C105.777 23.7202 106.971 22.3112 106.829 20.7136C106.687 19.116 105.266 17.9338 103.653 18.074Z" fill="#F7EEE2"/>
<path d="M56.9828 21.5972C56.8185 19.7348 55.8672 18.7317 53.1284 18.8728L53.1092 18.653C53.7871 18.5595 56.4621 18.1804 56.2201 15.4309L56.1799 14.9792C55.9764 12.6701 54.5707 12.0886 53.8395 11.8774C53.1363 11.6749 52.2688 11.616 51.2388 11.706L42.915 12.4278L44.0822 25.6648L50.0288 25.149L49.744 21.9261L50.8142 21.8335L51.099 25.0564L57.2422 24.5242L56.9837 21.5972H56.9828ZM49.3964 17.9996L49.157 15.2924L50.2272 15.1998L50.4665 17.907L49.3964 17.9996Z" fill="#F7EEE2"/>
<path d="M12.6823 15.0489L7.5293 15.4955L7.84939 19.12L13.0024 18.6734L12.6823 15.0489Z" fill="#F7EEE2"/>
<path d="M23.7567 14.0895L24.4853 22.3363L23.7672 22.3986L23.762 22.3796L22.9705 17.3955C22.6831 15.5867 21.0267 14.3266 19.1921 14.4859C17.3575 14.6451 13.6211 14.9688 13.6211 14.9688L14.79 28.2015L19.7364 27.7731L19.0252 19.7235L19.78 19.6578L20.52 24.3104C20.8196 26.1962 22.5966 27.5264 24.4617 27.3646C26.326 27.2027 29.8327 26.899 29.8327 26.899L28.6638 13.6646L23.7576 14.0895H23.7567Z" fill="#F7EEE2"/>
<path d="M13.07 19.4403L7.91699 19.8869L8.69811 28.7318L13.8511 28.2852L13.07 19.4403Z" fill="#F7EEE2"/>
<path d="M62.798 10.8657L62.6321 8.99026L59.0686 9.92408C57.8883 10.2339 57.1038 11.3876 57.2157 12.652L57.3292 13.9406L60.5432 13.6628C61.9139 13.5442 62.923 12.2919 62.7972 10.8648" fill="#F7EEE2"/>
<path d="M36.3016 21.6786L35.8377 16.421L36.9079 16.3284L37.2765 20.5059C37.2765 20.5059 38.476 20.4021 40.0529 20.2653C41.6297 20.1286 42.5269 18.9005 42.402 17.4924L42.2404 15.6577C41.9163 11.9787 37.2765 12.5923 35.7905 12.7204C29.2734 13.2846 29.8177 16.3258 30.0046 18.4444L30.2955 21.7426C30.5524 24.6523 31.4539 25.8873 33.1863 26.3295C36.2326 27.1067 42.5007 25.6224 43.0022 25.4303L42.6222 21.1308L36.3007 21.6777L36.3016 21.6786Z" fill="#F7EEE2"/>
</svg>
