<svg width="155" height="50" viewBox="0 0 155 50" fill="none" xmlns="http://www.w3.org/2000/svg">
<path d="M85.0707 20.0945L78.0645 20.7148L79.2077 33.9381L86.2139 33.3178L85.0707 20.0945Z" fill="#00A887"/>
<path d="M113.256 25.2964L113.136 23.9201L119.008 23.3996L118.622 18.9389L112.751 19.4582L112.631 18.0819L119.172 17.5025L118.69 11.9204L104.399 13.1861L105.986 31.5637L120.279 30.3003L119.796 24.717L113.256 25.2964Z" fill="#00A887"/>
<path d="M96.0884 25.9563L96.0516 25.9599L95.3828 26.0188L95.156 26.0392L93.7888 14.1261L85.7236 14.8401L89.6006 33.0157L102.778 31.8497L103.455 13.2703L95.39 13.9843L96.0884 25.9563Z" fill="#00A887"/>
<path d="M129.005 23.5919L127.925 11.103L119.841 11.8182L121.429 30.1982L133.936 29.0911L133.427 23.2013L129.005 23.5919Z" fill="#00A887"/>
<path d="M151.84 0L0 13.4421L3.16074 50L26.5177 47.9325L155 36.5579L151.84 0ZM149.125 33.708L34.3881 43.8661L8.96316 46.1163C7.42377 46.2521 6.07086 45.1439 5.94139 43.639L3.79978 18.8728C3.66912 17.3678 4.81179 16.0384 6.35118 15.9026L146.513 3.49424C148.053 3.35842 149.405 4.46667 149.535 5.97158L151.675 30.7378C151.805 32.2415 150.663 33.5721 149.124 33.708H149.125Z" fill="#00A887"/>
<path d="M144.155 23.6206L143.761 4.97021L134.694 5.77196L137.506 24.2096L144.155 23.6206Z" fill="#00A887"/>
<path d="M140.933 25.1028C138.741 25.2976 137.118 27.2532 137.31 29.4721C137.503 31.6911 139.435 33.333 141.628 33.1383C143.821 32.9447 145.443 30.9879 145.251 28.769C145.058 26.5501 143.126 24.9081 140.933 25.1028Z" fill="#00A887"/>
<path d="M77.4768 29.9961C77.2535 27.4094 75.96 26.0162 72.2362 26.2122L72.2101 25.9068C73.1318 25.777 76.7689 25.2505 76.4399 21.4318L76.3852 20.8043C76.1085 17.5973 74.1973 16.7896 73.2031 16.4963C72.2469 16.215 71.0674 16.1333 69.667 16.2583L58.3496 17.2608L59.9365 35.6455L68.0219 34.9291L67.6347 30.4528L69.0897 30.3242L69.4769 34.8005L77.8296 34.0613L77.478 29.9961H77.4768ZM67.1619 24.9993L66.8365 21.2394L68.2915 21.1108L68.617 24.8707L67.1619 24.9993Z" fill="#00A887"/>
<path d="M17.2435 20.9014L10.2373 21.5217L10.6725 26.5557L17.6787 25.9355L17.2435 20.9014Z" fill="#00A887"/>
<path d="M32.3014 19.5687L33.292 31.0227L32.3157 31.1092L32.3085 31.0828L31.2324 24.1604C30.8416 21.6482 28.5895 19.8981 26.0951 20.1192C23.6007 20.3404 18.5205 20.7899 18.5205 20.7899L20.1098 39.1687L26.8351 38.5737L25.8683 27.3938L26.8945 27.3024L27.9006 33.7644C28.308 36.3836 30.724 38.2311 33.26 38.0063C35.7947 37.7816 40.5626 37.3596 40.5626 37.3596L38.9733 18.9785L32.3026 19.5687H32.3014Z" fill="#00A887"/>
<path d="M17.7709 27.0006L10.7646 27.6208L11.8267 39.9053L18.8329 39.285L17.7709 27.0006Z" fill="#00A887"/>
<path d="M85.3828 15.0913L85.1571 12.4866L80.312 13.7835C78.7073 14.2139 77.6407 15.8161 77.7927 17.5723L77.9471 19.3621L82.3171 18.9762C84.1807 18.8115 85.5526 17.0722 85.3816 15.0901" fill="#00A887"/>
<path d="M49.3578 30.109L48.7271 22.8068L50.1821 22.6782L50.6834 28.4803C50.6834 28.4803 52.3142 28.3361 54.4582 28.1462C56.6022 27.9562 57.8221 26.2506 57.6522 24.2949L57.4325 21.7466C56.9918 16.6369 50.6834 17.4891 48.6629 17.667C39.8019 18.4507 40.5419 22.6746 40.7961 25.6171L41.1917 30.198C41.5409 34.2391 42.7667 35.9544 45.1221 36.5686C49.264 37.648 57.7865 35.5866 58.4683 35.3197L57.9516 29.3482L49.3566 30.1078L49.3578 30.109Z" fill="#00A887"/>
</svg>
