<svg width="40" height="40" viewBox="0 0 40 40" fill="none" xmlns="http://www.w3.org/2000/svg">
<rect width="40" height="40" rx="20" fill="#F7EEE2"/>
<g clip-path="url(#clip0_1081_8004)">
<path d="M8.5 30.5C8.5 31.0523 8.94772 31.5 9.5 31.5C10.0523 31.5 10.5 31.0523 10.5 30.5H8.5ZM19 30.5C19 31.0523 19.4477 31.5 20 31.5C20.5523 31.5 21 31.0523 21 30.5H19ZM24.5 23.5C23.9477 23.5 23.5 23.9477 23.5 24.5C23.5 25.0523 23.9477 25.5 24.5 25.5V23.5ZM29.5 30.5C29.5 31.0523 29.9477 31.5 30.5 31.5C31.0523 31.5 31.5 31.0523 31.5 30.5H29.5ZM10.5 30.5V24.5H8.5V30.5H10.5ZM12.5 22.5H17V20.5H12.5V22.5ZM19 24.5V30.5H21V24.5H19ZM24.5 25.5H27.5V23.5H24.5V25.5ZM29.5 27.5V30.5H31.5V27.5H29.5ZM14.75 10.5C16.207 10.5 17.5 11.6027 17.5 13.25H19.5C19.5 10.3973 17.2081 8.5 14.75 8.5V10.5ZM14.75 8.5C12.2919 8.5 10 10.3973 10 13.25H12C12 11.6027 13.293 10.5 14.75 10.5V8.5ZM14.75 16C13.293 16 12 14.8973 12 13.25H10C10 16.1027 12.2919 18 14.75 18V16ZM14.75 18C17.2081 18 19.5 16.1027 19.5 13.25H17.5C17.5 14.8973 16.207 16 14.75 16V18ZM26 11.5C23.9898 11.5 22 13.0842 22 15.5H24C24 14.3096 24.9696 13.5 26 13.5V11.5ZM26 13.5C27.0304 13.5 28 14.3096 28 15.5H30C30 13.0842 28.0102 11.5 26 11.5V13.5ZM26 17.5C24.9696 17.5 24 16.6904 24 15.5H22C22 17.9158 23.9898 19.5 26 19.5V17.5ZM26 19.5C28.0102 19.5 30 17.9158 30 15.5H28C28 16.6904 27.0304 17.5 26 17.5V19.5ZM27.5 25.5C28.6046 25.5 29.5 26.3954 29.5 27.5H31.5C31.5 25.2909 29.7091 23.5 27.5 23.5V25.5ZM17 22.5C18.1046 22.5 19 23.3954 19 24.5H21C21 22.2909 19.2091 20.5 17 20.5V22.5ZM10.5 24.5C10.5 23.3954 11.3954 22.5 12.5 22.5V20.5C10.2909 20.5 8.5 22.2909 8.5 24.5H10.5Z" fill="#00A887"/>
</g>
<defs>
<clipPath id="clip0_1081_8004">
<rect width="24" height="24" fill="white" transform="translate(8 8)"/>
</clipPath>
</defs>
</svg>
