<svg width="40" height="40" viewBox="0 0 40 40" fill="none" xmlns="http://www.w3.org/2000/svg">
<rect width="40" height="40" rx="20" fill="#F7EEE2"/>
<g clip-path="url(#clip0_1081_7999)">
<path d="M17.3253 30.423L17.4558 29.4316L17.3253 30.423ZM9.577 22.6747L10.5684 22.5442L9.577 22.6747ZM30.423 22.6747L29.4316 22.5442L30.423 22.6747ZM22.6747 30.423L22.5442 29.4316L22.6747 30.423ZM22.6747 9.577L22.5442 10.5684L22.6747 9.577ZM30.423 17.3253L29.4316 17.4558L30.423 17.3253ZM17.3253 9.577L17.4558 10.5684L17.3253 9.577ZM9.577 17.3253L10.5684 17.4558L9.577 17.3253ZM21 15.5C21 14.9477 20.5523 14.5 20 14.5C19.4477 14.5 19 14.9477 19 15.5H21ZM20 20H19C19 20.5523 19.4477 21 20 21V20ZM24.5 21C25.0523 21 25.5 20.5523 25.5 20C25.5 19.4477 25.0523 19 24.5 19V21ZM20 29.5C18.575 29.5 17.9593 29.4978 17.4558 29.4316L17.1947 31.4144C17.8609 31.5022 18.6385 31.5 20 31.5V29.5ZM8.5 20C8.5 21.3615 8.49784 22.1391 8.58555 22.8053L10.5684 22.5442C10.5022 22.0407 10.5 21.425 10.5 20H8.5ZM17.4558 29.4316C13.8659 28.9589 11.0411 26.1341 10.5684 22.5442L8.58555 22.8053C9.17632 27.2926 12.7074 30.8237 17.1947 31.4144L17.4558 29.4316ZM29.5 20C29.5 21.425 29.4978 22.0407 29.4316 22.5442L31.4144 22.8053C31.5022 22.1391 31.5 21.3615 31.5 20H29.5ZM20 31.5C21.3615 31.5 22.1391 31.5022 22.8053 31.4144L22.5442 29.4316C22.0407 29.4978 21.425 29.5 20 29.5V31.5ZM29.4316 22.5442C28.9589 26.1341 26.1341 28.9589 22.5442 29.4316L22.8053 31.4144C27.2926 30.8237 30.8237 27.2926 31.4144 22.8053L29.4316 22.5442ZM20 10.5C21.425 10.5 22.0407 10.5022 22.5442 10.5684L22.8053 8.58555C22.1391 8.49784 21.3615 8.5 20 8.5V10.5ZM31.5 20C31.5 18.6385 31.5022 17.8609 31.4144 17.1947L29.4316 17.4558C29.4978 17.9593 29.5 18.575 29.5 20H31.5ZM22.5442 10.5684C26.1341 11.0411 28.9589 13.8659 29.4316 17.4558L31.4144 17.1947C30.8237 12.7074 27.2926 9.17632 22.8053 8.58555L22.5442 10.5684ZM20 8.5C18.6385 8.5 17.8609 8.49784 17.1947 8.58555L17.4558 10.5684C17.9593 10.5022 18.575 10.5 20 10.5V8.5ZM10.5 20C10.5 18.575 10.5022 17.9593 10.5684 17.4558L8.58555 17.1947C8.49784 17.8609 8.5 18.6385 8.5 20H10.5ZM17.1947 8.58555C12.7074 9.17632 9.17632 12.7074 8.58555 17.1947L10.5684 17.4558C11.0411 13.8659 13.8659 11.0411 17.4558 10.5684L17.1947 8.58555ZM19 15.5V20H21V15.5H19ZM20 21H24.5V19H20V21Z" fill="#00A887"/>
</g>
<defs>
<clipPath id="clip0_1081_7999">
<rect width="24" height="24" fill="white" transform="translate(8 8)"/>
</clipPath>
</defs>
</svg>
