<svg width="24" height="24" viewBox="0 0 24 24" fill="none" xmlns="http://www.w3.org/2000/svg">
<g id="threads-icon">
<path id="Vector" d="M16.0503 11.3427C15.9728 11.3055 15.8941 11.2697 15.8143 11.2355C15.6753 8.67546 14.2765 7.20984 11.9277 7.19484C11.917 7.19478 11.9065 7.19478 11.8958 7.19478C10.4909 7.19478 9.32248 7.79446 8.60331 8.88569L9.89509 9.77183C10.4323 8.95672 11.2755 8.78295 11.8964 8.78295C11.9036 8.78295 11.9108 8.78295 11.9179 8.78302C12.6913 8.78795 13.2749 9.01281 13.6526 9.45131C13.9275 9.77056 14.1113 10.2117 14.2023 10.7685C13.5167 10.6519 12.7751 10.6161 11.9823 10.6616C9.74919 10.7902 8.31354 12.0926 8.40996 13.9024C8.45889 14.8204 8.91622 15.6101 9.69766 16.126C10.3584 16.5622 11.2093 16.7754 12.0937 16.7272C13.2616 16.6631 14.1778 16.2175 14.817 15.4028C15.3024 14.784 15.6094 13.9822 15.745 12.9718C16.3016 13.3077 16.7141 13.7498 16.9419 14.2811C17.3293 15.1844 17.3519 16.6687 16.1407 17.8789C15.0796 18.939 13.804 19.3976 11.8763 19.4118C9.73789 19.3959 8.12067 18.7102 7.0692 17.3735C6.08458 16.1218 5.57572 14.3139 5.55674 12C5.57572 9.68604 6.08458 7.87815 7.0692 6.6265C8.12067 5.28983 9.73787 4.60406 11.8762 4.58817C14.0301 4.60418 15.6755 5.29326 16.7673 6.63637C17.3026 7.29502 17.7062 8.12333 17.9722 9.08909L19.486 8.68521C19.1635 7.49646 18.656 6.4721 17.9655 5.62256C16.5659 3.90063 14.5189 3.0183 11.8815 3H11.871C9.2389 3.01823 7.21488 3.90392 5.85515 5.63243C4.64518 7.1706 4.02104 9.31085 4.00007 11.9937L4 12L4.00007 12.0063C4.02104 14.6891 4.64518 16.8294 5.85515 18.3676C7.21488 20.0961 9.2389 20.9818 11.871 21H11.8815C14.2216 20.9838 15.871 20.3711 17.2298 19.0135C19.0076 17.2374 18.9541 15.0112 18.3681 13.6445C17.9477 12.6644 17.1463 11.8684 16.0503 11.3427ZM12.01 15.1413C11.0313 15.1964 10.0145 14.7571 9.96434 13.8161C9.92717 13.1184 10.4609 12.3399 12.0701 12.2472C12.2544 12.2366 12.4353 12.2314 12.6129 12.2314C13.1974 12.2314 13.7443 12.2882 14.2414 12.3968C14.056 14.7127 12.9683 15.0887 12.01 15.1413Z" fill="#1C6147"/>
</g>
</svg>
