<svg width="16" height="16" viewBox="0 0 16 16" fill="none" xmlns="http://www.w3.org/2000/svg">
<path d="M1.5 15C1.5 15.2761 1.72386 15.5 2 15.5C2.27614 15.5 2.5 15.2761 2.5 15H1.5ZM13.5 15C13.5 15.2761 13.7239 15.5 14 15.5C14.2761 15.5 14.5 15.2761 14.5 15H13.5ZM1.5 13V15H2.5V13H1.5ZM13.5 13V15H14.5V13H13.5ZM11 9.5H5V10.5H11V9.5ZM8 0.5C6.22691 0.5 4.5 1.88404 4.5 4H5.5C5.5 2.4966 6.71693 1.5 8 1.5V0.5ZM4.5 4C4.5 5.77309 5.88404 7.5 8 7.5V6.5C6.4966 6.5 5.5 5.28307 5.5 4H4.5ZM8 1.5C9.28307 1.5 10.5 2.4966 10.5 4H11.5C11.5 1.88404 9.77309 0.5 8 0.5V1.5ZM10.5 4C10.5 5.28307 9.5034 6.5 8 6.5V7.5C10.116 7.5 11.5 5.77309 11.5 4H10.5ZM14.5 13C14.5 11.067 12.933 9.5 11 9.5V10.5C12.3807 10.5 13.5 11.6193 13.5 13H14.5ZM2.5 13C2.5 11.6193 3.61929 10.5 5 10.5V9.5C3.067 9.5 1.5 11.067 1.5 13H2.5Z" fill="#00A887"/>
</svg>
