<svg width="871" height="690" viewBox="0 0 871 690" fill="none" xmlns="http://www.w3.org/2000/svg">
<path d="M796.608 401.163L687.007 410.722L381.749 437.346C363.27 438.959 347.027 425.831 345.457 408.03L319.761 114.987C318.203 97.1867 331.913 81.4494 350.392 79.8366L765.251 43.654C783.73 42.0411 799.973 55.1693 801.531 72.9701L827.239 366.013C828.797 383.813 815.087 399.551 796.608 401.163ZM832.055 0L277 48.4214L314.945 481L595.386 456.534L870.012 432.579L832.055 0Z" fill="#1C6147"/>
<g clip-path="url(#clip0_1048_32911)">
<path d="M215.736 530.806C260.092 519.022 304.653 543.365 315.279 585.179C325.904 626.993 298.552 670.444 254.203 682.226C209.848 694.01 165.279 669.669 154.661 627.853C144.035 586.039 171.388 542.588 215.736 530.806" fill="#F7EEE2"/>
<path d="M142.811 526.292L29.5891 183.366L212.989 134.643L277.3 490.564L142.811 526.292Z" fill="#F7EEE2"/>
</g>
<defs>
<clipPath id="clip0_1048_32911">
<rect width="220.528" height="545.584" fill="white" transform="translate(0 193.888) rotate(-19.5755)"/>
</clipPath>
</defs>
</svg>
