<svg width="12" height="12" viewBox="0 0 12 12" fill="none" xmlns="http://www.w3.org/2000/svg">
<path d="M6.5625 4.83333H6.0625V5.33333H6.5625V4.83333ZM6.5625 0.75H7.0625C7.0625 0.537034 6.9276 0.347441 6.72641 0.277629C6.52521 0.207816 6.30187 0.273107 6.16996 0.440302L6.5625 0.75ZM1.5 7.16667L1.10746 6.85697C0.988789 7.00738 0.966505 7.21238 1.05008 7.38478C1.13366 7.55719 1.30841 7.66667 1.5 7.66667L1.5 7.16667ZM5.4375 7.16667H5.9375V6.66667H5.4375V7.16667ZM5.4375 11.25H4.9375C4.9375 11.463 5.0724 11.6526 5.27359 11.7224C5.47479 11.7922 5.69813 11.7269 5.83004 11.5597L5.4375 11.25ZM10.5 4.83333L10.8925 5.14303C11.0112 4.99262 11.0335 4.78762 10.9499 4.61522C10.8663 4.44281 10.6916 4.33333 10.5 4.33333V4.83333ZM7.0625 4.83333V0.75H6.0625V4.83333H7.0625ZM6.16996 0.440302L1.10746 6.85697L1.89254 7.47636L6.95504 1.0597L6.16996 0.440302ZM1.5 7.66667H5.4375V6.66667H1.5V7.66667ZM4.9375 7.16667V11.25H5.9375V7.16667H4.9375ZM5.83004 11.5597L10.8925 5.14303L10.1075 4.52364L5.04496 10.9403L5.83004 11.5597ZM10.5 4.33333H6.5625V5.33333H10.5V4.33333Z" fill="currentColor"/>
</svg>
