<svg width="16" height="16" viewBox="0 0 16 16" fill="none" xmlns="http://www.w3.org/2000/svg">
<path d="M8 14L7.70807 14.4059C7.88248 14.5314 8.11752 14.5314 8.29193 14.4059L8 14ZM1 3.05477L0.708067 2.64884C0.577436 2.74279 0.5 2.89386 0.5 3.05477H1ZM1 14H0.5C0.5 14.1876 0.604996 14.3594 0.771928 14.445C0.938861 14.5305 1.13964 14.5154 1.29193 14.4059L1 14ZM15 3.05477H15.5C15.5 2.89386 15.4226 2.74279 15.2919 2.64884L15 3.05477ZM15 14L14.7081 14.4059C14.8604 14.5154 15.0611 14.5305 15.2281 14.445C15.395 14.3594 15.5 14.1876 15.5 14H15ZM7.5 3.05477V14H8.5V3.05477H7.5ZM1.29193 3.46069C2.10785 2.8739 3.2369 2.5 4.5 2.5V1.5C3.04634 1.5 1.70887 1.92908 0.708067 2.64884L1.29193 3.46069ZM4.5 2.5C5.7631 2.5 6.89215 2.8739 7.70807 3.46069L8.29193 2.64884C7.29113 1.92908 5.95366 1.5 4.5 1.5V2.5ZM1.29193 14.4059C2.10785 13.8191 3.2369 13.4452 4.5 13.4452V12.4452C3.04634 12.4452 1.70887 12.8743 0.708067 13.5941L1.29193 14.4059ZM4.5 13.4452C5.7631 13.4452 6.89215 13.8191 7.70807 14.4059L8.29193 13.5941C7.29113 12.8743 5.95366 12.4452 4.5 12.4452V13.4452ZM0.5 3.05477V14H1.5V3.05477H0.5ZM15.2919 2.64884C14.2911 1.92908 12.9537 1.5 11.5 1.5V2.5C12.7631 2.5 13.8921 2.8739 14.7081 3.46069L15.2919 2.64884ZM11.5 1.5C10.0463 1.5 8.70887 1.92908 7.70807 2.64884L8.29193 3.46069C9.10785 2.8739 10.2369 2.5 11.5 2.5V1.5ZM15.2919 13.5941C14.2911 12.8743 12.9537 12.4452 11.5 12.4452V13.4452C12.7631 13.4452 13.8921 13.8191 14.7081 14.4059L15.2919 13.5941ZM11.5 12.4452C10.0463 12.4452 8.70887 12.8743 7.70807 13.5941L8.29193 14.4059C9.10785 13.8191 10.2369 13.4452 11.5 13.4452V12.4452ZM14.5 3.05477V14H15.5V3.05477H14.5Z" fill="#000F0C"/>
</svg>
