<svg width="20" height="20" viewBox="0 0 20 20" fill="none" xmlns="http://www.w3.org/2000/svg">
<path d="M18.0429 19.4571C18.4334 19.8476 19.0666 19.8476 19.4571 19.4571C19.8476 19.0666 19.8476 18.4334 19.4571 18.0429L18.0429 19.4571ZM1.95711 0.542894C1.56658 0.152369 0.933417 0.152369 0.542893 0.542894C0.152369 0.933418 0.152369 1.56658 0.542893 1.95711L1.95711 0.542894ZM19.4571 1.95711C19.8476 1.56658 19.8476 0.933417 19.4571 0.542893C19.0666 0.152369 18.4334 0.152369 18.0429 0.542893L19.4571 1.95711ZM0.542893 18.0429C0.152369 18.4334 0.152369 19.0666 0.542893 19.4571C0.933417 19.8476 1.56658 19.8476 1.95711 19.4571L0.542893 18.0429ZM19.4571 18.0429L10.7071 9.29289L9.29289 10.7071L18.0429 19.4571L19.4571 18.0429ZM10.7071 9.29289L1.95711 0.542894L0.542893 1.95711L9.29289 10.7071L10.7071 9.29289ZM18.0429 0.542893L9.29289 9.29289L10.7071 10.7071L19.4571 1.95711L18.0429 0.542893ZM9.29289 9.29289L0.542893 18.0429L1.95711 19.4571L10.7071 10.7071L9.29289 9.29289Z" fill="#000F0C"/>
</svg>
