<svg width="12" height="12" viewBox="0 0 12 12" fill="none" xmlns="http://www.w3.org/2000/svg">
<g clip-path="url(#clip0_879_7784)">
<path d="M1.5 3.15C1.5 2.30992 1.5 1.88988 1.66349 1.56901C1.8073 1.28677 2.03677 1.0573 2.31901 0.91349C2.63988 0.75 3.05992 0.75 3.9 0.75H8.1C8.94008 0.75 9.36012 0.75 9.68099 0.91349C9.96323 1.0573 10.1927 1.28677 10.3365 1.56901C10.5 1.88988 10.5 2.30992 10.5 3.15V5.85C10.5 6.69008 10.5 7.11012 10.3365 7.43099C10.1927 7.71323 9.96323 7.9427 9.68099 8.08651C9.36012 8.25 8.94008 8.25 8.1 8.25H3.9C3.05992 8.25 2.63988 8.25 2.31901 8.08651C2.03677 7.9427 1.8073 7.71323 1.66349 7.43099C1.5 7.11012 1.5 6.69008 1.5 5.85V3.15Z" stroke="currentColor"/>
<path d="M0.75 9.75C0.75 8.92157 1.42157 8.25 2.25 8.25H9.75C10.5784 8.25 11.25 8.92157 11.25 9.75C11.25 10.5784 10.5784 11.25 9.75 11.25H2.25C1.42157 11.25 0.75 10.5784 0.75 9.75Z" stroke="currentColor"/>
</g>
<defs>
<clipPath id="clip0_879_7784">
<rect width="12" height="12" fill="white"/>
</clipPath>
</defs>
</svg>
