<svg width="40" height="40" viewBox="0 0 40 40" fill="none" xmlns="http://www.w3.org/2000/svg">
<rect width="40" height="40" rx="20" fill="#F7EEE2"/>
<g clip-path="url(#clip0_1081_7994)">
<path d="M31.2943 16.0893C31.2943 13.1529 28.8661 10.767 25.8731 10.767C25.3649 10.767 24.8849 10.8517 24.419 10.9788C23.4449 9.60934 21.8213 8.70581 19.9861 8.70581C18.1508 8.70581 16.5413 9.60934 15.5531 10.9788C15.0872 10.8517 14.6072 10.767 14.099 10.767C11.1343 10.767 8.70605 13.1388 8.70605 16.0893C8.70605 18.2776 10.0613 20.1693 11.9813 20.974V29.8823C11.9813 30.6588 12.6308 31.294 13.4213 31.294H26.6919C27.4825 31.294 28.1319 30.6588 28.1319 29.8823V20.9176C29.9955 20.0705 31.2943 18.2352 31.2943 16.0893Z" stroke="#00A887" stroke-width="2" stroke-miterlimit="10"/>
</g>
<defs>
<clipPath id="clip0_1081_7994">
<rect width="24" height="24" fill="white" transform="translate(8 8)"/>
</clipPath>
</defs>
</svg>
