<svg width="16" height="14" viewBox="0 0 16 14" fill="none" xmlns="http://www.w3.org/2000/svg">
<path d="M2.09202 12.782L2.31901 12.3365L2.09202 12.782ZM1.21799 11.908L1.66349 11.681L1.21799 11.908ZM14.782 11.908L14.3365 11.681L14.782 11.908ZM13.908 12.782L13.681 12.3365L13.908 12.782ZM13.908 1.21799L13.681 1.66349L13.908 1.21799ZM14.782 2.09202L14.3365 2.31901L14.782 2.09202ZM2.09202 1.21799L2.31901 1.66349L2.09202 1.21799ZM1.21799 2.09202L1.66349 2.31901L1.21799 2.09202ZM1.19696 3.54043L0.737387 3.34347L0.343468 4.26261L0.80304 4.45957L1.19696 3.54043ZM8 7L7.80304 7.45957C7.92881 7.51348 8.07119 7.51348 8.19696 7.45957L8 7ZM15.197 4.45957L15.6565 4.26261L15.2626 3.34347L14.803 3.54043L15.197 4.45957ZM4.2 1.5H11.8V0.5H4.2V1.5ZM14.5 4.2V9.8H15.5V4.2H14.5ZM11.8 12.5H4.2V13.5H11.8V12.5ZM1.5 9.8V4.2H0.5V9.8H1.5ZM4.2 12.5C3.6317 12.5 3.23554 12.4996 2.92712 12.4744C2.62454 12.4497 2.45069 12.4036 2.31901 12.3365L1.86502 13.2275C2.16117 13.3784 2.48126 13.4413 2.84569 13.4711C3.20428 13.5004 3.6482 13.5 4.2 13.5V12.5ZM0.5 9.8C0.5 10.3518 0.499611 10.7957 0.528909 11.1543C0.558684 11.5187 0.62159 11.8388 0.772484 12.135L1.66349 11.681C1.5964 11.5493 1.55031 11.3755 1.52559 11.0729C1.50039 10.7645 1.5 10.3683 1.5 9.8H0.5ZM2.31901 12.3365C2.03677 12.1927 1.8073 11.9632 1.66349 11.681L0.772484 12.135C1.01217 12.6054 1.39462 12.9878 1.86502 13.2275L2.31901 12.3365ZM14.5 9.8C14.5 10.3683 14.4996 10.7645 14.4744 11.0729C14.4497 11.3755 14.4036 11.5493 14.3365 11.681L15.2275 12.135C15.3784 11.8388 15.4413 11.5187 15.4711 11.1543C15.5004 10.7957 15.5 10.3518 15.5 9.8H14.5ZM11.8 13.5C12.3518 13.5 12.7957 13.5004 13.1543 13.4711C13.5187 13.4413 13.8388 13.3784 14.135 13.2275L13.681 12.3365C13.5493 12.4036 13.3755 12.4497 13.0729 12.4744C12.7645 12.4996 12.3683 12.5 11.8 12.5V13.5ZM14.3365 11.681C14.1927 11.9632 13.9632 12.1927 13.681 12.3365L14.135 13.2275C14.6054 12.9878 14.9878 12.6054 15.2275 12.135L14.3365 11.681ZM11.8 1.5C12.3683 1.5 12.7645 1.50039 13.0729 1.52559C13.3755 1.55031 13.5493 1.5964 13.681 1.66349L14.135 0.772484C13.8388 0.62159 13.5187 0.558684 13.1543 0.528909C12.7957 0.499611 12.3518 0.5 11.8 0.5V1.5ZM15.5 4.2C15.5 3.6482 15.5004 3.20428 15.4711 2.84569C15.4413 2.48126 15.3784 2.16117 15.2275 1.86502L14.3365 2.31901C14.4036 2.45069 14.4497 2.62454 14.4744 2.92712C14.4996 3.23554 14.5 3.6317 14.5 4.2H15.5ZM13.681 1.66349C13.9632 1.8073 14.1927 2.03677 14.3365 2.31901L15.2275 1.86502C14.9878 1.39462 14.6054 1.01217 14.135 0.772484L13.681 1.66349ZM4.2 0.5C3.6482 0.5 3.20428 0.499611 2.84569 0.528909C2.48126 0.558684 2.16117 0.62159 1.86502 0.772484L2.31901 1.66349C2.45069 1.5964 2.62454 1.55031 2.92712 1.52559C3.23554 1.50039 3.6317 1.5 4.2 1.5V0.5ZM1.5 4.2C1.5 3.6317 1.50039 3.23554 1.52559 2.92712C1.55031 2.62454 1.5964 2.45069 1.66349 2.31901L0.772484 1.86502C0.62159 2.16117 0.558684 2.48126 0.528909 2.84569C0.499611 3.20428 0.5 3.6482 0.5 4.2H1.5ZM1.86502 0.772484C1.39462 1.01217 1.01217 1.39462 0.772484 1.86502L1.66349 2.31901C1.8073 2.03677 2.03677 1.8073 2.31901 1.66349L1.86502 0.772484ZM0.80304 4.45957L7.80304 7.45957L8.19696 6.54043L1.19696 3.54043L0.80304 4.45957ZM8.19696 7.45957L15.197 4.45957L14.803 3.54043L7.80304 6.54043L8.19696 7.45957Z" fill="#00A887"/>
</svg>
