<svg width="79" height="10" viewBox="0 0 79 10" fill="none" xmlns="http://www.w3.org/2000/svg">
<path d="M75.1506 4.15533C75.3996 4.14505 75.6474 4.19498 75.873 4.30088C76.0987 4.40677 76.2955 4.56552 76.4468 4.76368C76.7675 5.2105 76.9291 5.75214 76.9056 6.30179C76.9261 6.85463 76.756 7.39771 76.4238 7.8399C76.1398 8.18219 75.7321 8.39835 75.2896 8.44134C74.847 8.48434 74.4054 8.35068 74.0609 8.06947C73.9788 7.99879 73.9021 7.92206 73.8315 7.8399C73.504 7.39529 73.3344 6.8539 73.3497 6.30179C73.3292 5.74896 73.4993 5.20587 73.8315 4.76368C73.9874 4.56492 74.1884 4.40611 74.4177 4.30034C74.6471 4.19456 74.8983 4.14486 75.1506 4.15533ZM74.795 9.98637C75.5345 9.99631 76.2537 9.74422 76.8253 9.2747V9.71088C76.822 9.72683 76.8221 9.7433 76.8257 9.75919C76.8292 9.77509 76.8361 9.79004 76.8458 9.80307C76.8556 9.8161 76.868 9.8269 76.8823 9.83475C76.8965 9.84261 76.9123 9.84734 76.9285 9.84863H78.3624C78.3783 9.85193 78.3947 9.85181 78.4106 9.84826C78.4265 9.84472 78.4415 9.83783 78.4545 9.82806C78.4675 9.81829 78.4783 9.80586 78.4861 9.79159C78.494 9.77733 78.4987 9.76155 78.5 9.74532V0.13788C78.5027 0.119166 78.501 0.100083 78.495 0.0821448C78.4891 0.0642065 78.479 0.0479066 78.4656 0.0345381C78.4523 0.0211696 78.436 0.0111003 78.4181 0.00512917C78.4001 -0.000841963 78.3811 -0.00255067 78.3624 0.000138581H76.9629C76.9296 -0.00243545 76.8965 0.00811852 76.8708 0.0295553C76.8451 0.050992 76.8288 0.0816197 76.8253 0.114923V3.35184C76.2493 2.89018 75.533 2.63912 74.795 2.64018C74.36 2.62407 73.9268 2.70418 73.5263 2.87481C73.1258 3.04544 72.7678 3.30238 72.4779 3.62732C71.8929 4.28159 71.6062 5.17691 71.6062 6.31327C71.6062 7.44963 71.8929 8.33347 72.4779 8.99922C72.7678 9.32416 73.1258 9.5811 73.5263 9.75173C73.9268 9.92236 74.36 10.0025 74.795 9.98637ZM59.7685 4.15533C60.0175 4.14505 60.2653 4.19498 60.491 4.30088C60.7166 4.40677 60.9134 4.56552 61.0647 4.76368C61.3922 5.2083 61.5617 5.74968 61.5465 6.30179C61.569 6.85489 61.3987 7.39863 61.0647 7.8399C60.7807 8.18219 60.373 8.39835 59.9305 8.44134C59.4879 8.48434 59.0463 8.35068 58.7018 8.06947C58.6197 7.99879 58.543 7.92206 58.4724 7.8399C58.1432 7.39672 57.9771 6.8534 58.0021 6.30179C57.9795 5.74869 58.1498 5.20495 58.4838 4.76368C58.6351 4.56552 58.8319 4.40677 59.0576 4.30088C59.2832 4.19498 59.531 4.14505 59.78 4.15533H59.7685ZM59.4474 9.98637C60.1868 9.99631 60.906 9.74422 61.4776 9.2747V9.71088C61.4743 9.72683 61.4745 9.7433 61.478 9.75919C61.4816 9.77509 61.4884 9.79004 61.4982 9.80307C61.508 9.8161 61.5204 9.8269 61.5346 9.83475C61.5489 9.84261 61.5647 9.84734 61.5809 9.84863H63.0262C63.0421 9.85193 63.0586 9.85181 63.0745 9.84826C63.0903 9.84472 63.1053 9.83783 63.1183 9.82806C63.1313 9.81829 63.1421 9.80586 63.15 9.79159C63.1578 9.77733 63.1625 9.76155 63.1638 9.74532V2.92714C63.1665 2.90842 63.1648 2.88934 63.1588 2.8714C63.1529 2.85346 63.1428 2.83716 63.1295 2.82379C63.1161 2.81043 63.0998 2.80036 63.0819 2.79439C63.064 2.78841 63.0449 2.78671 63.0262 2.7894H61.6153C61.5819 2.78682 61.5489 2.79737 61.5232 2.81881C61.4975 2.84025 61.4811 2.87088 61.4776 2.90418V3.35184C60.8988 2.88856 60.177 2.64104 59.4359 2.65165C59.0009 2.63555 58.5677 2.71566 58.1672 2.88629C57.7667 3.05692 57.4087 3.31386 57.1188 3.6388C56.5338 4.29307 56.2471 5.18839 56.2471 6.32475C56.2471 7.46111 56.5338 8.34495 57.1188 9.0107C57.4087 9.33564 57.7667 9.59258 58.1672 9.76321C58.5677 9.93384 59.0009 10.014 59.4359 9.99784L59.4474 9.98637ZM0.637663 9.8601H2.11737C2.14624 9.86717 2.17673 9.86274 2.20241 9.84775C2.22809 9.83276 2.24695 9.80838 2.25502 9.77975V5.71639H6.24678C6.28014 5.71897 6.31319 5.70841 6.3389 5.68698C6.36461 5.66554 6.38094 5.63491 6.38443 5.60161V4.2242C6.38711 4.20548 6.38541 4.1864 6.37944 4.16846C6.37347 4.15053 6.36341 4.13422 6.35005 4.12086C6.33669 4.10749 6.3204 4.09742 6.30248 4.09145C6.28455 4.08548 6.26548 4.08377 6.24678 4.08646H2.26649V1.65303H6.41884C6.43553 1.65528 6.45252 1.65403 6.4687 1.64936C6.48489 1.64469 6.49993 1.63671 6.51287 1.62591C6.52582 1.61512 6.53638 1.60176 6.54388 1.58667C6.55139 1.57157 6.55568 1.55509 6.55649 1.53825V0.160837C6.55757 0.143426 6.55513 0.125975 6.54932 0.109528C6.54351 0.093081 6.53445 0.077976 6.52267 0.0651167C6.51089 0.0522573 6.49664 0.0419079 6.48077 0.0346877C6.4649 0.0274674 6.44774 0.0235247 6.43031 0.0230954H0.637663C0.604234 0.02022 0.571023 0.0306644 0.545248 0.0521583C0.519472 0.0736523 0.503217 0.104458 0.500016 0.13788V9.72236C0.497328 9.74108 0.499036 9.76016 0.505003 9.7781C0.51097 9.79603 0.521032 9.81234 0.534392 9.8257C0.547751 9.83907 0.56404 9.84914 0.581966 9.85511C0.599892 9.86108 0.618962 9.86279 0.637663 9.8601ZM15.0791 4.30455H16.2835V7.62181C16.2619 7.94419 16.309 8.26748 16.4218 8.57025C16.5345 8.87303 16.7102 9.14837 16.9374 9.37801C17.1677 9.58777 17.4374 9.74958 17.7308 9.85402C18.0243 9.95846 18.3355 10.0035 18.6465 9.98637C19.1944 10.0124 19.7424 9.93848 20.2638 9.76828C20.3441 9.74532 20.3785 9.66497 20.3785 9.52723V8.36791C20.3785 8.28756 20.3441 8.24165 20.2868 8.24165H20.195C19.7964 8.3789 19.3777 8.44872 18.9562 8.44826C18.8173 8.45999 18.6775 8.43913 18.5481 8.38732C18.4187 8.33551 18.3031 8.25418 18.2106 8.14982C18.0384 7.89304 17.9576 7.58577 17.9812 7.27746V4.30455H20.1032C20.1219 4.30724 20.141 4.30553 20.1589 4.29956C20.1769 4.29358 20.1932 4.28352 20.2065 4.27015C20.2199 4.25678 20.2299 4.24048 20.2359 4.22254C20.2419 4.2046 20.2436 4.18552 20.2409 4.16681V2.92714C20.2416 2.89419 20.2304 2.86211 20.2093 2.8368C20.1882 2.81148 20.1587 2.79465 20.1262 2.7894H17.9812V0.757714C17.9882 0.728819 17.9838 0.698308 17.9688 0.672613C17.9539 0.646919 17.9295 0.628046 17.9009 0.619973H16.4327C16.414 0.617284 16.3949 0.618993 16.377 0.624964C16.359 0.630935 16.3427 0.641004 16.3294 0.654373C16.316 0.667741 16.306 0.684041 16.3 0.70198C16.294 0.719918 16.2923 0.739001 16.295 0.757714V2.7894H15.0906C15.0747 2.78609 15.0582 2.78621 15.0423 2.78976C15.0264 2.7933 15.0115 2.80019 14.9985 2.80996C14.9855 2.81973 14.9747 2.83216 14.9668 2.84643C14.959 2.86069 14.9542 2.87647 14.953 2.8927V4.16681C14.9496 4.18275 14.9498 4.19922 14.9533 4.21511C14.9569 4.23101 14.9637 4.24597 14.9735 4.25899C14.9833 4.27202 14.9957 4.28282 15.0099 4.29068C15.0242 4.29853 15.04 4.30326 15.0562 4.30455H15.0791ZM36.9306 4.51116C37.2506 4.27979 37.6371 4.15892 38.0318 4.16681C38.9838 4.16681 39.6032 4.59151 39.8785 5.45239H36.2194C36.3537 5.07272 36.6021 4.74394 36.9306 4.51116ZM35.4394 8.95331C35.777 9.29104 36.1802 9.55593 36.6241 9.73164C37.068 9.90734 37.5432 9.99013 38.0203 9.97489C39.7294 9.97489 40.8765 9.21731 41.4615 7.70216C41.4747 7.65735 41.4824 7.6111 41.4844 7.56442C41.4872 7.55375 41.4875 7.54259 41.4854 7.53177C41.4832 7.52096 41.4787 7.51076 41.4721 7.50194C41.4655 7.49312 41.457 7.4859 41.4472 7.48082C41.4374 7.47574 41.4266 7.47293 41.4156 7.47259H39.9588C39.9176 7.47239 39.8772 7.48423 39.8425 7.50666C39.8079 7.52908 39.7806 7.56112 39.7638 7.59885C39.4197 8.18425 38.8462 8.47121 38.0318 8.47121C37.5753 8.48657 37.1295 8.33105 36.7815 8.03503C36.4464 7.72936 36.2309 7.31435 36.1735 6.86423H41.5188C41.5536 6.86761 41.5884 6.85763 41.616 6.83631C41.6437 6.815 41.6623 6.78395 41.6679 6.74945V6.46249C41.6954 5.46683 41.3427 4.49812 40.6815 3.75358C40.3479 3.39015 39.9389 3.1042 39.4831 2.91581C39.0273 2.72743 38.5359 2.64118 38.0432 2.66313C37.575 2.65278 37.1093 2.73535 36.6731 2.90605C36.2369 3.07676 35.8388 3.33224 35.5018 3.65773C35.1648 3.98322 34.8956 4.37228 34.7097 4.80246C34.5237 5.23264 34.4248 5.6954 34.4185 6.16405V6.32475C34.4041 6.80897 34.487 7.29116 34.6624 7.7427C34.8378 8.19423 35.102 8.60591 35.4394 8.95331ZM44.4324 1.65303H46.5888C46.8886 1.64015 47.1826 1.73822 47.4147 1.92851C47.5274 2.03285 47.6149 2.16149 47.6705 2.30468C47.7262 2.44786 47.7485 2.60185 47.7359 2.75496C47.7476 2.9097 47.7249 3.06513 47.6694 3.21002C47.6138 3.35492 47.5268 3.48568 47.4147 3.59288C47.3027 3.69273 47.1721 3.76948 47.0303 3.81872C46.8886 3.86797 46.7386 3.88874 46.5888 3.87985H44.4324V1.65303ZM44.4324 5.4983H46.7379C47.1059 5.48483 47.4644 5.61677 47.7359 5.86561C47.8651 5.9946 47.9663 6.14879 48.0334 6.31861C48.1005 6.48843 48.132 6.67025 48.1259 6.85276C48.1385 7.0394 48.1101 7.22654 48.0427 7.40103C47.9753 7.57553 47.8706 7.73315 47.7359 7.86286C47.4631 8.10851 47.1045 8.2364 46.7379 8.21869H44.4324V5.4983ZM42.8035 9.8601H46.8985C47.2989 9.87849 47.6989 9.81465 48.0737 9.67251C48.4485 9.53038 48.7903 9.31296 49.0779 9.03366C49.3505 8.76004 49.5643 8.43362 49.7063 8.0744C49.8483 7.71517 49.9155 7.33072 49.9038 6.94458C49.9038 5.77379 49.4335 4.98177 48.4815 4.56855C48.792 4.34724 49.0448 4.05441 49.2185 3.71479C49.3922 3.37517 49.4817 2.99872 49.4794 2.61722C49.4954 2.25828 49.4281 1.90051 49.2828 1.57193C49.1375 1.24335 48.9182 0.952889 48.6421 0.723279C48.0609 0.240039 47.3208 -0.00954419 46.5659 0.0230954H42.8035C42.7868 0.0208497 42.7699 0.0221005 42.7537 0.0267684C42.7375 0.0314364 42.7224 0.0394196 42.7095 0.0502118C42.6966 0.0610041 42.686 0.0743698 42.6785 0.0894613C42.671 0.104553 42.6667 0.121041 42.6659 0.13788V9.72236C42.6632 9.74108 42.6649 9.76016 42.6709 9.7781C42.6768 9.79603 42.6869 9.81234 42.7003 9.8257C42.7136 9.83907 42.7299 9.84914 42.7478 9.85511C42.7658 9.86108 42.7848 9.86279 42.8035 9.8601ZM50.9477 9.8601H52.3585C52.3772 9.86279 52.3963 9.86108 52.4142 9.85511C52.4322 9.84914 52.4484 9.83907 52.4618 9.8257C52.4752 9.81234 52.4852 9.79603 52.4912 9.7781C52.4972 9.76016 52.4989 9.74108 52.4962 9.72236V6.07222C52.4962 5.38352 52.6338 4.90142 52.8977 4.61446C53.0432 4.46651 53.219 4.35192 53.4131 4.2786C53.6072 4.20527 53.8148 4.17496 54.0218 4.18976C54.5306 4.20783 55.0287 4.34127 55.4785 4.58003C55.5075 4.59303 55.5386 4.60081 55.5703 4.60299C55.6506 4.60299 55.685 4.55707 55.685 4.45377V3.13375C55.6884 3.07851 55.6734 3.0237 55.6422 2.97797C55.6111 2.93225 55.5656 2.8982 55.5129 2.88122C55.1012 2.73098 54.6665 2.65331 54.2282 2.65165C53.5866 2.64142 52.966 2.87999 52.4962 3.3174V2.95009C52.4969 2.91715 52.4857 2.88507 52.4646 2.85975C52.4435 2.83444 52.414 2.81761 52.3815 2.81235H50.9706C50.9519 2.80966 50.9328 2.81137 50.9149 2.81734C50.897 2.82331 50.8807 2.83338 50.8673 2.84675C50.854 2.86012 50.8439 2.87642 50.8379 2.89436C50.832 2.9123 50.8303 2.93138 50.8329 2.95009V9.73384C50.8303 9.75255 50.832 9.77164 50.8379 9.78958C50.8439 9.80751 50.854 9.82381 50.8673 9.83718C50.8807 9.85055 50.897 9.86062 50.9149 9.86659C50.9328 9.87256 50.9519 9.87427 50.9706 9.87158L50.9477 9.8601ZM22.1909 9.34357C22.4336 9.56475 22.7177 9.73546 23.0269 9.84581C23.336 9.95616 23.664 10.0039 23.9918 9.98637C24.7693 9.98662 25.5216 9.70993 26.1138 9.20583V9.69941C26.1131 9.73235 26.1244 9.76443 26.1454 9.78975C26.1665 9.81506 26.196 9.83189 26.2285 9.83715H27.6624C27.6783 9.84045 27.6948 9.84033 27.7106 9.83679C27.7265 9.83324 27.7415 9.82635 27.7545 9.81658C27.7675 9.80681 27.7783 9.79438 27.7861 9.78011C27.794 9.76585 27.7987 9.75007 27.8 9.73384V2.92714C27.8071 2.89824 27.8026 2.86773 27.7877 2.84204C27.7727 2.81634 27.7483 2.79747 27.7197 2.7894H26.263C26.2443 2.78671 26.2252 2.78841 26.2073 2.79439C26.1893 2.80036 26.173 2.81043 26.1597 2.82379C26.1463 2.83716 26.1363 2.85346 26.1303 2.8714C26.1243 2.88934 26.1226 2.90842 26.1253 2.92714V6.11814C26.1253 6.89867 25.9647 7.48407 25.655 7.87434C25.5133 8.05864 25.3308 8.20747 25.1217 8.30906C24.9127 8.41066 24.683 8.46224 24.4506 8.45973C23.6477 8.45973 23.2462 7.97764 23.2462 7.00198V2.92714C23.2469 2.89419 23.2357 2.86211 23.2146 2.8368C23.1935 2.81148 23.164 2.79465 23.1315 2.7894H21.7091C21.6803 2.78233 21.6498 2.78676 21.6241 2.80175C21.5984 2.81673 21.5795 2.84111 21.5715 2.86974V7.59885C21.5446 7.91704 21.5859 8.2373 21.6928 8.5382C21.7996 8.83909 21.9694 9.11368 22.1909 9.34357ZM29.0503 9.8601H30.4497C30.4684 9.86279 30.4875 9.86108 30.5054 9.85511C30.5233 9.84914 30.5396 9.83907 30.553 9.8257C30.5663 9.81234 30.5764 9.79603 30.5824 9.7781C30.5883 9.76016 30.59 9.74108 30.5874 9.72236V6.07222C30.5874 5.38352 30.725 4.90142 30.9888 4.61446C31.1343 4.46651 31.3102 4.35192 31.5043 4.2786C31.6984 4.20527 31.906 4.17496 32.113 4.18976C32.6218 4.20783 33.1199 4.34127 33.5697 4.58003C33.5987 4.59303 33.6298 4.60081 33.6615 4.60299C33.7418 4.60299 33.7762 4.55707 33.7762 4.45377V3.13375C33.7796 3.07851 33.7646 3.0237 33.7334 2.97797C33.7023 2.93225 33.6568 2.8982 33.6041 2.88122C33.1924 2.73098 32.7577 2.65331 32.3194 2.65165C31.6778 2.64142 31.0571 2.87999 30.5874 3.3174V2.95009C30.5881 2.91715 30.5768 2.88507 30.5558 2.85975C30.5347 2.83444 30.5052 2.81761 30.4727 2.81235H29.0388C29.0201 2.80966 29.0011 2.81137 28.9831 2.81734C28.9652 2.82331 28.9489 2.83338 28.9356 2.84675C28.9222 2.86012 28.9121 2.87642 28.9062 2.89436C28.9002 2.9123 28.8985 2.93138 28.9012 2.95009V9.73384C28.9012 9.81419 28.9471 9.8601 29.0503 9.8601ZM8.39178 9.34357C8.63444 9.56475 8.91861 9.73546 9.22776 9.84581C9.53692 9.95616 9.8649 10.0039 10.1927 9.98637C10.9706 9.98864 11.7235 9.7117 12.3147 9.20583V9.69941C12.314 9.73235 12.3252 9.76443 12.3463 9.78975C12.3674 9.81506 12.3969 9.83189 12.4294 9.83715H13.8632C13.8792 9.84045 13.8956 9.84033 13.9115 9.83679C13.9274 9.83324 13.9424 9.82635 13.9554 9.81658C13.9684 9.80681 13.9792 9.79438 13.987 9.78011C13.9949 9.76585 13.9996 9.75007 14.0009 9.73384V2.92714C14.008 2.89824 14.0035 2.86773 13.9886 2.84204C13.9736 2.81634 13.9492 2.79747 13.9206 2.7894H12.4638C12.4451 2.78671 12.4261 2.78841 12.4081 2.79439C12.3902 2.80036 12.3739 2.81043 12.3606 2.82379C12.3472 2.83716 12.3371 2.85346 12.3312 2.8714C12.3252 2.88934 12.3235 2.90842 12.3262 2.92714V6.11814C12.3262 6.89867 12.1656 7.48407 11.8444 7.87434C11.7027 8.05864 11.5202 8.20747 11.3112 8.30906C11.1021 8.41066 10.8724 8.46224 10.64 8.45973C9.83707 8.45973 9.4356 7.97764 9.4356 7.00198V2.92714C9.4363 2.89419 9.42507 2.86211 9.404 2.8368C9.38292 2.81148 9.3534 2.79465 9.3209 2.7894H7.8756C7.86052 2.78606 7.84491 2.78581 7.82973 2.78866C7.81454 2.79151 7.80009 2.7974 7.78723 2.80597C7.77438 2.81455 7.76339 2.82563 7.75492 2.83856C7.74645 2.8515 7.74068 2.866 7.73796 2.88122V7.59885C7.72269 7.91887 7.7728 8.23865 7.88522 8.53863C7.99763 8.83861 8.17 9.11251 8.39178 9.34357ZM64.4371 9.8601H65.8365C65.8552 9.86279 65.8743 9.86108 65.8922 9.85511C65.9101 9.84914 65.9264 9.83907 65.9398 9.8257C65.9531 9.81234 65.9632 9.79603 65.9691 9.7781C65.9751 9.76016 65.9768 9.74108 65.9741 9.72236V6.51988C65.9741 5.73935 66.1347 5.15395 66.4559 4.76368C66.5993 4.58133 66.7823 4.4339 66.9909 4.33251C67.1995 4.23111 67.4284 4.17838 67.6603 4.17828C68.4632 4.17828 68.8647 4.66038 68.8647 5.63604V9.72236C68.8614 9.73831 68.8615 9.75477 68.8651 9.77067C68.8686 9.78656 68.8755 9.80152 68.8853 9.81455C68.895 9.82758 68.9074 9.83838 68.9217 9.84623C68.936 9.85409 68.9517 9.85881 68.9679 9.8601H70.4018C70.4205 9.86279 70.4395 9.86108 70.4575 9.85511C70.4754 9.84914 70.4917 9.83907 70.505 9.8257C70.5184 9.81234 70.5285 9.79603 70.5344 9.7781C70.5404 9.76016 70.5421 9.74108 70.5394 9.72236V5.06212C70.5557 4.74026 70.5061 4.41847 70.3937 4.11647C70.2813 3.81448 70.1084 3.53865 69.8856 3.30592C69.6435 3.08318 69.3597 2.91067 69.0506 2.79837C68.7415 2.68606 68.4132 2.6362 68.0847 2.65165C67.3072 2.6514 66.5549 2.92809 65.9627 3.43219V2.93861C65.9634 2.90567 65.9521 2.87359 65.931 2.84827C65.91 2.82296 65.8805 2.80613 65.8479 2.80087H64.4256C64.4069 2.79818 64.3878 2.79989 64.3699 2.80586C64.352 2.81184 64.3357 2.8219 64.3223 2.83527C64.309 2.84864 64.2989 2.86494 64.2929 2.88288C64.287 2.90082 64.2853 2.9199 64.2879 2.93861V9.72236C64.2875 9.74156 64.2912 9.76063 64.2987 9.77831C64.3062 9.79599 64.3174 9.81186 64.3315 9.82489C64.3456 9.83792 64.3623 9.84779 64.3805 9.85386C64.3987 9.85993 64.418 9.86206 64.4371 9.8601Z" fill="#F7EEE2"/>
</svg>
