<svg width="19" height="19" viewBox="0 0 19 19" fill="none" xmlns="http://www.w3.org/2000/svg">
<path d="M9.36794 6.76887C7.71536 6.76887 6.36672 8.11751 6.36672 9.7701C6.36672 11.4227 7.71536 12.7713 9.36794 12.7713C11.0205 12.7713 12.3692 11.4227 12.3692 9.7701C12.3692 8.11751 11.0205 6.76887 9.36794 6.76887ZM18.3694 9.7701C18.3694 8.52728 18.3806 7.29572 18.3108 6.05515C18.241 4.61421 17.9123 3.33537 16.8586 2.28168C15.8027 1.22573 14.5261 0.899268 13.0851 0.829472C11.8423 0.759676 10.6108 0.770933 9.37019 0.770933C8.12738 0.770933 6.89582 0.759676 5.65525 0.829472C4.21431 0.899268 2.93547 1.22798 1.88177 2.28168C0.82583 3.33762 0.499365 4.61421 0.429569 6.05515C0.359774 7.29797 0.371031 8.52953 0.371031 9.7701C0.371031 11.0107 0.359774 12.2445 0.429569 13.485C0.499365 14.926 0.828081 16.2048 1.88177 17.2585C2.93772 18.3145 4.21431 18.6409 5.65525 18.7107C6.89807 18.7805 8.12963 18.7693 9.37019 18.7693C10.613 18.7693 11.8446 18.7805 13.0851 18.7107C14.5261 18.6409 15.8049 18.3122 16.8586 17.2585C17.9146 16.2026 18.241 14.926 18.3108 13.485C18.3829 12.2445 18.3694 11.0129 18.3694 9.7701ZM9.36794 14.3879C6.81251 14.3879 4.75016 12.3255 4.75016 9.7701C4.75016 7.21467 6.81251 5.15231 9.36794 5.15231C11.9234 5.15231 13.9857 7.21467 13.9857 9.7701C13.9857 12.3255 11.9234 14.3879 9.36794 14.3879ZM14.1749 6.04165C13.5782 6.04165 13.0964 5.55983 13.0964 4.96319C13.0964 4.36655 13.5782 3.88473 14.1749 3.88473C14.7715 3.88473 15.2533 4.36655 15.2533 4.96319C15.2535 5.10486 15.2257 5.24518 15.1716 5.37611C15.1174 5.50703 15.038 5.62599 14.9378 5.72617C14.8377 5.82635 14.7187 5.90578 14.5878 5.95992C14.4568 6.01405 14.3165 6.04182 14.1749 6.04165Z" fill="#1C6147"/>
</svg>
