<svg width="16" height="16" viewBox="0 0 16 16" fill="none" xmlns="http://www.w3.org/2000/svg">
<g clip-path="url(#clip0_211_49327)">
<path d="M7.49994 1.04642C7.49969 1.32256 7.72334 1.54662 7.99949 1.54687C8.27563 1.54712 8.49969 1.32347 8.49994 1.04733L7.49994 1.04642ZM8.49998 1.00045C8.50023 0.72431 8.27658 0.50025 8.00043 0.5C7.72429 0.49975 7.50023 0.723405 7.49998 0.999547L8.49998 1.00045ZM7.49997 15C7.49997 15.2761 7.72383 15.5 7.99997 15.5C8.27611 15.5 8.49997 15.2761 8.49997 15H7.49997ZM8.49997 14.9805C8.49997 14.7043 8.27611 14.4805 7.99997 14.4805C7.72383 14.4805 7.49997 14.7043 7.49997 14.9805H8.49997ZM1.04642 8.50003C1.32256 8.50028 1.54662 8.27663 1.54687 8.00048C1.54712 7.72434 1.32347 7.50028 1.04733 7.50003L1.04642 8.50003ZM1.00045 7.49999C0.72431 7.49974 0.50025 7.72339 0.5 7.99954C0.49975 8.27568 0.723405 8.49974 0.999547 8.49999L1.00045 7.49999ZM15 8.50003C15.2761 8.50003 15.5 8.27617 15.5 8.00003C15.5 7.72389 15.2761 7.50003 15 7.50003V8.50003ZM14.9805 7.50003C14.7043 7.50003 14.4805 7.72389 14.4805 8.00003C14.4805 8.27617 14.7043 8.50003 14.9805 8.50003V7.50003ZM3.43662 13.2705C3.63206 13.0754 3.63234 12.7588 3.43726 12.5634C3.24217 12.368 2.92559 12.3677 2.73015 12.5628L3.43662 13.2705ZM2.69698 12.5959C2.50154 12.791 2.50125 13.1075 2.69633 13.303C2.89142 13.4984 3.208 13.4987 3.40344 13.3036L2.69698 12.5959ZM13.3033 3.40384C13.4985 3.20858 13.4986 2.89199 13.3033 2.69673C13.108 2.50146 12.7915 2.50146 12.5962 2.69672L13.3033 3.40384ZM12.5824 2.71053C12.3871 2.90579 12.3871 3.22237 12.5824 3.41763C12.7776 3.6129 13.0942 3.61291 13.2895 3.41765L12.5824 2.71053ZM13.2704 12.5634C13.0754 12.3679 12.7588 12.3676 12.5633 12.5627C12.3679 12.7578 12.3676 13.0744 12.5627 13.2698L13.2704 12.5634ZM12.5958 13.303C12.7909 13.4984 13.1075 13.4987 13.3029 13.3036C13.4984 13.1086 13.4986 12.792 13.3036 12.5965L12.5958 13.303ZM3.40378 2.6967C3.20852 2.50144 2.89193 2.50144 2.69667 2.6967C2.50141 2.89196 2.50141 3.20855 2.69667 3.40381L3.40378 2.6967ZM2.71048 3.41762C2.90574 3.61288 3.22233 3.61288 3.41759 3.41762C3.61285 3.22236 3.61285 2.90577 3.41759 2.71051L2.71048 3.41762ZM11.5 8C11.5 9.933 9.93297 11.5 7.99997 11.5V12.5C10.4853 12.5 12.5 10.4853 12.5 8H11.5ZM7.99997 11.5C6.06697 11.5 4.49997 9.933 4.49997 8H3.49997C3.49997 10.4853 5.51469 12.5 7.99997 12.5V11.5ZM4.49997 8C4.49997 6.067 6.06697 4.5 7.99997 4.5V3.5C5.51469 3.5 3.49997 5.51472 3.49997 8H4.49997ZM7.99997 4.5C9.93297 4.5 11.5 6.067 11.5 8H12.5C12.5 5.51472 10.4853 3.5 7.99997 3.5V4.5ZM8.49994 1.04733L8.49998 1.00045L7.49998 0.999547L7.49994 1.04642L8.49994 1.04733ZM8.49997 15V14.9805H7.49997V15H8.49997ZM1.04733 7.50003L1.00045 7.49999L0.999547 8.49999L1.04642 8.50003L1.04733 7.50003ZM15 7.50003H14.9805V8.50003H15V7.50003ZM2.73015 12.5628L2.69698 12.5959L3.40344 13.3036L3.43662 13.2705L2.73015 12.5628ZM12.5962 2.69672L12.5824 2.71053L13.2895 3.41765L13.3033 3.40384L12.5962 2.69672ZM12.5627 13.2698L12.5958 13.303L13.3036 12.5965L13.2704 12.5634L12.5627 13.2698ZM2.69667 3.40381L2.71048 3.41762L3.41759 2.71051L3.40378 2.6967L2.69667 3.40381Z" fill="currentColor"/>
</g>
<defs>
<clipPath id="clip0_211_49327">
<rect width="16" height="16" fill="currentColor"/>
</clipPath>
</defs>
</svg>
