<svg width="12" height="12" viewBox="0 0 12 12" fill="none" xmlns="http://www.w3.org/2000/svg">
<g clip-path="url(#clip0_879_5884)">
<path d="M8 2C8 1.44772 7.55228 1 7 1C6.44772 1 6 1.44772 6 2H8ZM6 14C6 14.5523 6.44772 15 7 15C7.55228 15 8 14.5523 8 14H6ZM6 3.2C6 3.75228 6.44772 4.2 7 4.2C7.55228 4.2 8 3.75228 8 3.2H6ZM8 6.8C8 6.24772 7.55228 5.8 7 5.8C6.44772 5.8 6 6.24772 6 6.8H8ZM6 9.2C6 9.75229 6.44772 10.2 7 10.2C7.55228 10.2 8 9.75229 8 9.2H6ZM8 12.8C8 12.2477 7.55228 11.8 7 11.8C6.44772 11.8 6 12.2477 6 12.8H8ZM6 2V3.2H8V2H6ZM6 6.8V9.2H8V6.8H6ZM6 12.8V14H8V12.8H6Z" fill="currentColor"/>
<path d="M11.25 4.5V5C11.5261 5 11.75 4.77614 11.75 4.5H11.25ZM0.75 4.5H0.25C0.25 4.77614 0.473858 5 0.75 5L0.75 4.5ZM0.75 7.5V7C0.473858 7 0.25 7.22386 0.25 7.5H0.75ZM11.25 7.5H11.75C11.75 7.22386 11.5261 7 11.25 7V7.5ZM0.858993 9.95399L0.41349 10.181L0.858993 9.95399ZM2.35 10.5L2.35 10L2.35 10.5ZM1.29601 10.391L1.06901 10.8365L1.29601 10.391ZM9.65 10.5V11V10.5ZM10.704 10.391L10.931 10.8365L10.704 10.391ZM11.141 9.95399L11.5865 10.181L11.141 9.95399ZM1.29601 1.60899L1.06901 1.16349L1.29601 1.60899ZM0.858993 2.04601L0.41349 1.81901L0.858993 2.04601ZM11.141 2.04601L11.5865 1.81901L11.141 2.04601ZM10.704 1.60899L10.477 2.0545L10.704 1.60899ZM10.75 3.1V4.5H11.75V3.1H10.75ZM2.35 2H9.65V1H2.35V2ZM1.25 4.5V3.1H0.25V4.5H1.25ZM0.75 5C1.30228 5 1.75 5.44772 1.75 6H2.75C2.75 4.89543 1.85457 4 0.75 4V5ZM1.75 6C1.75 6.55228 1.30228 7 0.75 7V8C1.85457 8 2.75 7.10457 2.75 6H1.75ZM1.25 8.9V7.5H0.25V8.9H1.25ZM9.65 10L2.35 10L2.35 11L9.65 11V10ZM10.75 7.5V8.9H11.75V7.5H10.75ZM11.25 7C10.6977 7 10.25 6.55228 10.25 6H9.25C9.25 7.10457 10.1454 8 11.25 8V7ZM10.25 6C10.25 5.44772 10.6977 5 11.25 5V4C10.1454 4 9.25 4.89543 9.25 6H10.25ZM0.25 8.9C0.25 9.17178 0.249611 9.40568 0.265285 9.59751C0.281435 9.79519 0.317093 9.9918 0.41349 10.181L1.3045 9.727C1.2919 9.70227 1.27306 9.65191 1.26196 9.51608C1.25039 9.37441 1.25 9.18828 1.25 8.9H0.25ZM2.35 10C2.06172 10 1.87559 9.99961 1.73392 9.98804C1.59809 9.97694 1.54773 9.9581 1.523 9.9455L1.06901 10.8365C1.2582 10.9329 1.45481 10.9686 1.65249 10.9847C1.84432 11.0004 2.07822 11 2.35 11L2.35 10ZM0.41349 10.181C0.5573 10.4632 0.786771 10.6927 1.06901 10.8365L1.523 9.9455C1.42892 9.89757 1.35243 9.82108 1.3045 9.727L0.41349 10.181ZM9.65 11C9.92178 11 10.1557 11.0004 10.3475 10.9847C10.5452 10.9686 10.7418 10.9329 10.931 10.8365L10.477 9.9455C10.4523 9.9581 10.4019 9.97694 10.2661 9.98804C10.1244 9.99961 9.93828 10 9.65 10V11ZM10.75 8.9C10.75 9.18828 10.7496 9.37441 10.738 9.51608C10.7269 9.65191 10.7081 9.70227 10.6955 9.727L11.5865 10.181C11.6829 9.9918 11.7186 9.79519 11.7347 9.59751C11.7504 9.40568 11.75 9.17178 11.75 8.9H10.75ZM10.931 10.8365C11.2132 10.6927 11.4427 10.4632 11.5865 10.181L10.6955 9.727C10.6476 9.82108 10.5711 9.89757 10.477 9.9455L10.931 10.8365ZM2.35 1C2.07822 1 1.84432 0.999611 1.65249 1.01528C1.45481 1.03144 1.2582 1.06709 1.06901 1.16349L1.523 2.0545C1.54773 2.0419 1.59809 2.02306 1.73392 2.01196C1.87559 2.00039 2.06172 2 2.35 2V1ZM1.25 3.1C1.25 2.81172 1.25039 2.62559 1.26196 2.48392C1.27306 2.34809 1.2919 2.29773 1.3045 2.273L0.41349 1.81901C0.317093 2.0082 0.281435 2.20481 0.265285 2.40249C0.249611 2.59432 0.25 2.82822 0.25 3.1H1.25ZM1.06901 1.16349C0.786771 1.3073 0.5573 1.53677 0.41349 1.81901L1.3045 2.273C1.35243 2.17892 1.42892 2.10243 1.523 2.0545L1.06901 1.16349ZM11.75 3.1C11.75 2.82822 11.7504 2.59432 11.7347 2.40249C11.7186 2.20481 11.6829 2.0082 11.5865 1.81901L10.6955 2.273C10.7081 2.29773 10.7269 2.34809 10.738 2.48392C10.7496 2.62559 10.75 2.81172 10.75 3.1H11.75ZM9.65 2C9.93828 2 10.1244 2.00039 10.2661 2.01196C10.4019 2.02306 10.4523 2.0419 10.477 2.0545L10.931 1.16349C10.7418 1.06709 10.5452 1.03144 10.3475 1.01528C10.1557 0.999611 9.92178 1 9.65 1V2ZM11.5865 1.81901C11.4427 1.53677 11.2132 1.3073 10.931 1.16349L10.477 2.0545C10.5711 2.10243 10.6476 2.17892 10.6955 2.273L11.5865 1.81901Z" fill="currentColor"/>
</g>
<defs>
<clipPath id="clip0_879_5884">
<rect width="12" height="12" fill="white"/>
</clipPath>
</defs>
</svg>
