<svg version="1.2" xmlns="http://www.w3.org/2000/svg" viewBox="0 0 314 330" width="314" height="330"><style>.a{fill:#f2861c}.b{fill:#6d2820}</style><path class="a" d="m119 329.5c-2.2-1-0.1-4.9 0.7-6.8 1.8-4.6 4.5-8 7-12.2 2.5-4.2 6.3-11 2.5-15.4-5.5-6.3-14.4-6.9-22.2-6.1-10.3 1.1-20.1 3.9-30.5 2.8-9.9-1.1-19.8-5.5-25.1-13.9-10.3-16.1-0.3-35.3 12.6-46.2 9.2-7.8 19.4-9.6 31-11.1 1.9-0.2 6 0.1 6.9-2 0.8-1.8-1.7-4.6-2.8-5.7-6.9-7.3-16.6-5.8-25.5-6-14.9-0.3-29.7-2.5-42.7-10.3-12.1-7.2-22-18.3-27.2-31.4-1.9-4.5-3.2-9.3-3-14.2 0.3-14.9 15.8-23.7 28.8-26.4 9.5-1.9 19.3-1.5 29-1 3.6 0.1 7.3 0.3 10.9-0.3 0.8-0.2 1.7-0.4 2.3-1 1.9-1.5 0.9-4.5-0.2-6.6-7.7-15.2-13.6-31.8-16.3-48.7-2.9-18.2-3.8-46.2 10.5-60.1 8.1-8 18.2-9.1 28-3.5 10.4 6 16.9 15 22 25.6 8.9 18.3 15.3 38.1 19.1 58 1 5 2 10.4 4.6 14.8 4.5 7.6 10.3 2.1 14.3-3.3 7.7-10.2 12.6-22.1 18.1-33.5 5.4-11.4 11-23.9 23.4-28.9 10.3-4.1 25-3 33.9 3.9 20.7 15.8 21.7 43.6 19.3 67.2-2.6 24.6-10 48.7-20 71.2-1.9 4.3-4 8.7-4.1 13.4-0.1 7.2 5.8 17.6 13.2 19.5 8 2 16.1-4.8 20.4-10.9 3.4-5 7-9.7 10.7-14.5 3.8-5 7.2-10.2 12-14.5 8.5-7.8 19.7-6.6 26.1 3.2 2.8 4.4 3.9 9.6 4.8 14.7 1.2 6.5 2.2 13.1 2 19.7-0.3 12.4-2.7 25-5.3 37.1-3.9 18-9.5 36.1-17.9 52.8-2 4.2-3.6 4.3-7.6 5.1q-4.1 0.7-8.2 1.4c-18.3 3.1-36.6 6.1-54.9 9q-31.8 5.1-63.6 10c-11.9 1.8-24.1 4.6-36.2 5.1-0.2 0.1-0.6 0.1-0.8 0z"/><path class="b" d="m34.9 166.9c14.9-0.9 29.8-0.8 44.7-2.4 6.9-0.7 14.1-1.6 20.9-2.3 3.8-0.4 18.4-3.2 21.4-4.3-7.3-15.9-15-31.6-21.7-47.9-6.7-16.5-11.8-33.4-16.8-50.5-1.1-3.9-2.8-8.2-2.9-12.2 0-1.8 0.6-3.1 2.7-3.1 2.6 0 3 2.4 3.7 4.4 2.9 8.2 5.7 16.5 8.5 24.7 5.8 16.5 11.8 32.8 18.9 48.8 4 9 8.1 17.9 12.4 26.7 2.2 4.5 9.9 22.4 13.2 25.3 8.2-8.9 13.6-22.9 20.1-33.3 1.2-2 2.4-4.1 4.5-5.1 0.7 9.4-6.5 22.2-10.6 30-2.5 4.7-5.1 9.2-8 13.7-2.1 3.2-1.6 3.4 0.3 6.5 1.4 2.4 2.8 5.2 4.7 7.3 4.7-4 19.4-29.9 23.6-35.9 1.9-2.5 4.2-6.1 7.4-6.7 0 8.1-7.1 18.4-11.1 25.2-4.8 8.3-9.5 17.4-15.6 24.8 11.1 20.2 25.9 39.2 41.2 56.5 7.7 8.9 15.2 17.9 22.7 27 2.8 3.4 5.4 6.9 8 10.4 3.3 4.6 7.5 9.3 10 14.4-7.1-4.8-13.6-11.9-19.7-18-6.9-7-13.1-14.6-19.7-21.8-11.6-12.8-22.4-26.3-32.4-40.4-10.6-15.1-21.1-30.2-30.2-46.2q-3.2-5.5-6.2-11.1c-0.6-1.2-1.8-4.9-2.9-5.7-1-0.7-1.8-0.2-3.1 0-8.2 1.8-16.7 2.5-25.1 3.4-10.4 1.1-41.6 1.5-46.8 0.9-5.4-0.6-16.1-2.8-16.1-3.1z"/><path class="b" d="m271.7 210.3c-0.6 10.8-2.2 21.6-6.4 31.6-2.1 5-4.8 9.8-8 14.1-1.8 2.3-7 10.2-10.7 8.8-4.1-1.5 3.3-9.9 4.6-11.7 3-4.4 5.5-9.2 7.7-14 2.2-5 4.1-10.2 6.2-15.3q1.7-4.2 3.5-8.5c0.5-1.3 1.2-5 3.1-5z"/><path class="b" d="m217.9 117.6c0.3-3.5 2.1-25.9 7.9-23.3 4 1.8 1.1 8.6 0.1 11.4-0.8 2.4-1.9 4.7-3.4 6.9-0.8 1.2-2.9 5.2-4.6 5z"/><path class="b" d="m211.5 85.3c0.1 1.5 0.3 10.1-2.6 9.5-2.4-0.5-3.5-8.5-3.7-10.4-0.3-2.4-0.9-7.1 2.8-6.9 4 0.1 3.5 5.1 3.5 7.8z"/><path class="b" d="m90.9 247.5c-2.1-0.3-4.9-0.8-6.1-2.8-1.4-2.2 0.2-3.9 2.6-4 2.1-0.1 4.4 1.2 5.7 2.8 2.1 2.8 0.6 3.4-2.2 4z"/></svg>